<svg width="397" height="79" viewBox="0 0 397 79" fill="none" xmlns="http://www.w3.org/2000/svg">
<path d="M337.427 76.9996V5.71289H369.506C374.055 5.71289 378.162 6.69733 381.828 8.6662C385.562 10.6351 388.482 13.3508 390.586 16.8133C392.691 20.2079 393.743 24.0777 393.743 28.4228C393.743 32.9037 392.691 36.9433 390.586 40.5416C388.482 44.0719 385.596 46.8555 381.93 48.8923C378.264 50.9291 374.122 51.9474 369.506 51.9474H353.925V76.9996H337.427ZM376.94 76.9996L358.813 44.8188L376.533 42.2728L396.697 76.9996H376.94ZM353.925 38.7085H367.978C369.743 38.7085 371.271 38.3351 372.561 37.5882C373.919 36.7735 374.937 35.6533 375.616 34.2276C376.363 32.8019 376.736 31.1724 376.736 29.3394C376.736 27.5063 376.329 25.9108 375.514 24.553C374.7 23.1272 373.511 22.041 371.95 21.2941C370.456 20.5473 368.623 20.1739 366.451 20.1739H353.925V38.7085Z" fill="white"/>
<path d="M276.388 76.9996V5.71289H293.7V61.7239H325.474V76.9996H276.388Z" fill="white"/>
<path d="M206 76.9996V5.71289H237.468C242.356 5.71289 246.498 6.42576 249.892 7.8515C253.287 9.20934 255.833 11.2122 257.53 13.86C259.295 16.4399 260.178 19.5629 260.178 23.2291C260.178 27.3026 259.16 30.7311 257.123 33.5147C255.154 36.2983 252.268 38.1653 248.467 39.1158L248.263 37.1809C251.454 37.8598 254.203 39.0479 256.512 40.7452C258.888 42.4425 260.721 44.5472 262.011 47.0592C263.301 49.5033 263.946 52.2869 263.946 55.4099C263.946 59.0082 263.335 62.1652 262.113 64.8809C260.891 67.5287 259.126 69.7691 256.817 71.6022C254.509 73.4353 251.793 74.7931 248.67 75.6757C245.615 76.5583 242.22 76.9996 238.486 76.9996H206ZM222.294 62.5386H237.875C239.776 62.5386 241.372 62.2331 242.662 61.6221C244.02 61.011 245.072 60.1284 245.819 58.9743C246.566 57.7522 246.939 56.2925 246.939 54.5952C246.939 53.0337 246.532 51.7098 245.717 50.6235C244.97 49.5373 243.884 48.7226 242.458 48.1794C241.032 47.5684 239.335 47.2629 237.366 47.2629H222.294V62.5386ZM222.294 34.3294H235.024C236.789 34.3294 238.283 34.0579 239.505 33.5147C240.795 32.9037 241.745 32.089 242.356 31.0706C243.035 29.9843 243.375 28.6944 243.375 27.2008C243.375 25.0282 242.628 23.3309 241.134 22.1088C239.641 20.8189 237.4 20.1739 234.413 20.1739H222.294V34.3294Z" fill="white"/>
<path d="M85.9294 76.9996V20.9886H64.7471V5.71289H124.933V20.9886H103.242V76.9996H85.9294Z" fill="white"/>
<path d="M30.5515 78.0185C25.8669 78.0185 21.6236 77.4754 17.8217 76.3891C14.0876 75.2349 10.7609 73.6055 7.84154 71.5009C4.92218 69.3283 2.30833 66.7824 0 63.863L10.4893 51.9479C13.8839 56.4967 17.2785 59.5519 20.6732 61.1134C24.1357 62.6749 27.7 63.4557 31.3662 63.4557C33.1993 63.4557 34.8626 63.218 36.3562 62.7428C37.8499 62.2675 39.004 61.5886 39.8187 60.706C40.6334 59.7555 41.0408 58.6014 41.0408 57.2435C41.0408 56.2251 40.7692 55.3086 40.2261 54.4939C39.7508 53.6792 39.0719 52.9663 38.1893 52.3553C37.3067 51.7443 36.2544 51.2011 35.0323 50.7259C33.8103 50.1827 32.5203 49.7414 31.1625 49.402C29.8046 48.9946 28.4129 48.6552 26.9871 48.3836C23.0494 47.501 19.6208 46.4147 16.7015 45.1248C13.7821 43.8348 11.338 42.2733 9.36911 40.4402C7.46813 38.5392 6.0424 36.4006 5.09191 34.0244C4.14142 31.5803 3.66617 28.8646 3.66617 25.8774C3.66617 22.6864 4.37904 19.7671 5.80478 17.1193C7.2984 14.4036 9.26728 12.0953 11.7114 10.1943C14.2234 8.2254 17.1088 6.73177 20.3676 5.71339C23.6265 4.62712 27.0211 4.08398 30.5515 4.08398C35.236 4.08398 39.2417 4.59317 42.5684 5.61155C45.963 6.56204 48.8484 7.95383 51.2246 9.78692C53.6687 11.62 55.7394 13.8265 57.4367 16.4064L46.7437 26.6921C45.318 24.9269 43.7565 23.4672 42.0592 22.313C40.4298 21.1589 38.6646 20.2763 36.7636 19.6652C34.9305 19.0542 33.0295 18.7487 31.0607 18.7487C29.0239 18.7487 27.2587 19.0203 25.7651 19.5634C24.3393 20.0386 23.2191 20.7515 22.4044 21.702C21.5897 22.5846 21.1823 23.6709 21.1823 24.9608C21.1823 26.115 21.5218 27.0994 22.2007 27.9141C22.8796 28.7288 23.7962 29.4756 24.9504 30.1546C26.1045 30.7656 27.4284 31.3087 28.922 31.784C30.4157 32.1913 31.9772 32.5308 33.6066 32.8024C37.3407 33.5492 40.7013 34.5336 43.6886 35.7557C46.7437 36.9777 49.3576 38.4713 51.5301 40.2365C53.7706 42.0017 55.4679 44.1064 56.622 46.5505C57.8441 48.9267 58.4551 51.7103 58.4551 54.9012C58.4551 59.8574 57.2331 64.0667 54.789 67.5292C52.4127 70.9238 49.12 73.5376 44.9106 75.3707C40.7692 77.1359 35.9828 78.0185 30.5515 78.0185Z" fill="white"/>
<path d="M152.563 8.54128C154.43 4.94788 159.57 4.94788 161.437 8.54128L193.205 69.695C194.934 73.0235 192.519 77 188.768 77H125.232C121.481 77 119.066 73.0235 120.795 69.695L152.563 8.54128Z" fill="#0E7EE5"/>
<path d="M152.563 8.54128C154.43 4.94788 159.57 4.94788 161.437 8.54128L193.205 69.695C194.934 73.0235 192.519 77 188.768 77H125.232C121.481 77 119.066 73.0235 120.795 69.695L152.563 8.54128Z" fill="url(#paint0_linear_20178_1437)"/>
<path d="M152.563 8.54128C154.43 4.94788 159.57 4.94788 161.437 8.54128L193.205 69.695C194.934 73.0235 192.519 77 188.768 77H125.232C121.481 77 119.066 73.0235 120.795 69.695L152.563 8.54128Z" fill="url(#paint1_linear_20178_1437)"/>
<path d="M152.563 33.5463C154.429 29.9517 159.571 29.9517 161.437 33.5463L184 77H130L152.563 33.5463Z" fill="url(#paint2_linear_20178_1437)"/>
<path opacity="0.7" d="M152.564 60.5309C154.431 56.94 159.569 56.9399 161.436 60.5309L170 77H144L152.564 60.5309Z" fill="url(#paint3_linear_20178_1437)"/>
<defs>
<linearGradient id="paint0_linear_20178_1437" x1="157" y1="0" x2="157" y2="77" gradientUnits="userSpaceOnUse">
<stop offset="0.111628" stop-color="#BD00FF"/>
<stop offset="0.851224" stop-color="#27CDF1" stop-opacity="0"/>
</linearGradient>
<linearGradient id="paint1_linear_20178_1437" x1="157" y1="0" x2="157" y2="77" gradientUnits="userSpaceOnUse">
<stop stop-color="#22C38E"/>
<stop offset="1" stop-color="#299571"/>
</linearGradient>
<linearGradient id="paint2_linear_20178_1437" x1="157" y1="25" x2="157" y2="77" gradientUnits="userSpaceOnUse">
<stop stop-color="#4EDEAF"/>
<stop offset="1" stop-color="#1DAB7C"/>
</linearGradient>
<linearGradient id="paint3_linear_20178_1437" x1="157" y1="52" x2="157" y2="77" gradientUnits="userSpaceOnUse">
<stop stop-color="#35FFBC"/>
<stop offset="1" stop-color="#47C79D"/>
</linearGradient>
</defs>
</svg>
