<svg width="147" height="29" viewBox="0 0 147 29" fill="none" xmlns="http://www.w3.org/2000/svg">
<path d="M125.009 27.1094V1.84326H136.483C138.11 1.84326 139.579 2.19218 140.891 2.89C142.226 3.58784 143.271 4.55037 144.023 5.77758C144.776 6.98073 145.153 8.35231 145.153 9.89234C145.153 11.4805 144.776 12.9123 144.023 14.1876C143.271 15.4389 142.238 16.4255 140.927 17.1474C139.616 17.8693 138.134 18.2302 136.483 18.2302H130.91V27.1094H125.009ZM139.142 27.1094L132.659 15.7036L138.997 14.8012L146.209 27.1094H139.142ZM130.91 13.5379H135.937C136.568 13.5379 137.115 13.4056 137.576 13.1408C138.062 12.8521 138.426 12.4551 138.669 11.9497C138.936 11.4444 139.069 10.8669 139.069 10.2172C139.069 9.56751 138.924 9.00201 138.632 8.52077C138.341 8.01542 137.916 7.63044 137.358 7.36572C136.823 7.10103 136.168 6.96868 135.391 6.96868H130.91V13.5379Z" fill="black"/>
<path d="M103.177 27.1094V1.84326H109.369V21.6953H120.734V27.1094H103.177Z" fill="black"/>
<path d="M78 27.1094V1.84326H89.2556C91.0039 1.84326 92.4854 2.09592 93.6994 2.60125C94.9137 3.08251 95.8244 3.79238 96.4314 4.73085C97.0627 5.64524 97.3785 6.75213 97.3785 8.05154C97.3785 9.49531 97.0144 10.7105 96.2858 11.6971C95.5815 12.6837 94.5493 13.3454 93.1897 13.6823L93.1167 12.9965C94.2581 13.2371 95.2414 13.6582 96.0673 14.2598C96.9171 14.8614 97.5727 15.6073 98.0342 16.4977C98.4956 17.3639 98.7263 18.3505 98.7263 19.4574C98.7263 20.7327 98.5077 21.8517 98.0706 22.8142C97.6336 23.7527 97.0022 24.5467 96.1764 25.1964C95.3508 25.8461 94.3794 26.3274 93.2623 26.6402C92.1696 26.953 90.9553 27.1094 89.6197 27.1094H78ZM83.8281 21.984H89.4011C90.0811 21.984 90.652 21.8757 91.1134 21.6592C91.5991 21.4426 91.9754 21.1298 92.2426 20.7207C92.5098 20.2876 92.6432 19.7702 92.6432 19.1686C92.6432 18.6152 92.4976 18.146 92.2061 17.7609C91.9389 17.376 91.5504 17.0872 91.0404 16.8947C90.5303 16.6781 89.9233 16.5698 89.2191 16.5698H83.8281V21.984ZM83.8281 11.9858H88.3814C89.0127 11.9858 89.5471 11.8896 89.9842 11.6971C90.4456 11.4805 90.7854 11.1918 91.0039 10.8308C91.2468 10.4458 91.3684 9.98861 91.3684 9.45923C91.3684 8.68919 91.1012 8.08762 90.5668 7.65447C90.0328 7.19729 89.2312 6.96868 88.1628 6.96868H83.8281V11.9858Z" fill="black"/>
<path d="M30.7357 27.1094V7.25744H23.1592V1.84326H44.6866V7.25744H36.9281V27.1094H30.7357Z" fill="black"/>
<path d="M10.9277 27.4703C9.25214 27.4703 7.73439 27.2778 6.37451 26.8928C5.03889 26.4837 3.84899 25.9062 2.80478 25.1602C1.76058 24.3902 0.82565 23.4878 0 22.4531L3.75184 18.2301C4.96603 19.8423 6.18022 20.9251 7.39444 21.4786C8.63292 22.032 9.90781 22.3088 11.2191 22.3088C11.8748 22.3088 12.4697 22.2245 13.004 22.0561C13.5383 21.8876 13.9511 21.647 14.2425 21.3342C14.5339 20.9973 14.6796 20.5883 14.6796 20.107C14.6796 19.746 14.5824 19.4212 14.3882 19.1324C14.2182 18.8437 13.9753 18.591 13.6596 18.3744C13.344 18.1579 12.9676 17.9654 12.5304 17.7969C12.0934 17.6044 11.6319 17.448 11.1463 17.3277C10.6606 17.1833 10.1628 17.063 9.65282 16.9668C8.24437 16.6539 7.01802 16.2689 5.97384 15.8117C4.92962 15.3545 4.05541 14.8011 3.35117 14.1514C2.67122 13.4776 2.16126 12.7196 1.82129 11.8774C1.48131 11.0112 1.31133 10.0486 1.31133 8.98987C1.31133 7.85889 1.56631 6.8242 2.07627 5.88574C2.61051 4.92321 3.31474 4.10508 4.18896 3.43131C5.08746 2.73347 6.11952 2.20408 7.28514 1.84314C8.45079 1.45813 9.66498 1.26562 10.9277 1.26562C12.6033 1.26562 14.0361 1.4461 15.226 1.80704C16.4402 2.14392 17.4722 2.63722 18.3221 3.28692C19.1964 3.93662 19.937 4.71867 20.5441 5.63306L16.7194 9.27863C16.2095 8.65299 15.6509 8.13563 15.0438 7.72654C14.461 7.31749 13.8297 7.00467 13.1497 6.78808C12.494 6.57152 11.8141 6.46325 11.1099 6.46325C10.3813 6.46325 9.74996 6.55951 9.21573 6.752C8.70574 6.92043 8.30507 7.1731 8.01366 7.50999C7.72226 7.82281 7.57654 8.20782 7.57654 8.665C7.57654 9.07409 7.69797 9.42299 7.9408 9.71174C8.18364 10.0005 8.51149 10.2652 8.92432 10.5058C9.33713 10.7224 9.81066 10.9149 10.3449 11.0834C10.8792 11.2277 11.4377 11.348 12.0205 11.4443C13.3561 11.709 14.5581 12.0579 15.6267 12.491C16.7194 12.9242 17.6544 13.4535 18.4314 14.0792C19.2328 14.7048 19.8399 15.4508 20.2527 16.317C20.6898 17.1592 20.9084 18.1458 20.9084 19.2768C20.9084 21.0334 20.4713 22.5253 19.5971 23.7525C18.7471 24.9557 17.5694 25.8821 16.0637 26.5318C14.5824 27.1574 12.8704 27.4703 10.9277 27.4703Z" fill="black"/>
<path d="M56.3464 1.09842C57.108 -0.366139 59.2045 -0.366139 59.9661 1.09842L72.9239 26.0227C73.6291 27.3793 72.6441 29 71.1141 29H45.1984C43.6684 29 42.6834 27.3793 43.3886 26.0227L56.3464 1.09842Z" fill="url(#paint0_linear_89_1472)"/>
<path d="M56.3464 1.09842C57.108 -0.366139 59.2045 -0.366139 59.9661 1.09842L72.9239 26.0227C73.6291 27.3793 72.6441 29 71.1141 29H45.1984C43.6684 29 42.6834 27.3793 43.3886 26.0227L56.3464 1.09842Z" fill="url(#paint1_linear_89_1472)"/>
<path d="M56.3464 1.09842C57.108 -0.366139 59.2045 -0.366139 59.9661 1.09842L72.9239 26.0227C73.6291 27.3793 72.6441 29 71.1141 29H45.1984C43.6684 29 42.6834 27.3793 43.3886 26.0227L56.3464 1.09842Z" fill="url(#paint2_linear_89_1472)"/>
<path d="M56.3486 11.1099C57.1088 9.63002 59.2037 9.63002 59.9639 11.1099L69.1562 29H47.1562L56.3486 11.1099Z" fill="url(#paint3_linear_89_1472)"/>
<path d="M56.3486 11.1099C57.1088 9.63002 59.2037 9.63002 59.9639 11.1099L69.1562 29H47.1562L56.3486 11.1099Z" fill="url(#paint4_linear_89_1472)"/>
<path opacity="0.7" d="M56.4501 22.1244C57.1682 20.6252 59.1443 20.6252 59.8624 22.1244L63.1562 29H53.1562L56.4501 22.1244Z" fill="url(#paint5_linear_89_1472)"/>
<defs>
<linearGradient id="paint0_linear_89_1472" x1="58.1563" y1="-2.38273" x2="58.1563" y2="29" gradientUnits="userSpaceOnUse">
<stop offset="0.111628" stop-color="#BD00FF"/>
<stop offset="0.851224" stop-color="#27CDF1" stop-opacity="0"/>
</linearGradient>
<linearGradient id="paint1_linear_89_1472" x1="58.1563" y1="-2.38273" x2="58.1563" y2="29" gradientUnits="userSpaceOnUse">
<stop offset="0.111628" stop-color="#BD00FF"/>
<stop offset="0.851224" stop-color="#27CDF1" stop-opacity="0"/>
</linearGradient>
<linearGradient id="paint2_linear_89_1472" x1="58.1563" y1="-2.38273" x2="58.1563" y2="29" gradientUnits="userSpaceOnUse">
<stop offset="0.111628" stop-color="#BD00FF"/>
<stop offset="0.851224" stop-color="#27CDF1" stop-opacity="0"/>
</linearGradient>
<linearGradient id="paint3_linear_89_1472" x1="58.1562" y1="8.43888" x2="58.1562" y2="29" gradientUnits="userSpaceOnUse">
<stop offset="0.111628" stop-color="#BD00FF"/>
<stop offset="0.851224" stop-color="#27CDF1" stop-opacity="0"/>
</linearGradient>
<linearGradient id="paint4_linear_89_1472" x1="58.1562" y1="8.43888" x2="58.1562" y2="29" gradientUnits="userSpaceOnUse">
<stop offset="0.111628" stop-color="#BD00FF"/>
<stop offset="0.851224" stop-color="#27CDF1" stop-opacity="0"/>
</linearGradient>
<linearGradient id="paint5_linear_89_1472" x1="58.1562" y1="20.3427" x2="58.1562" y2="29" gradientUnits="userSpaceOnUse">
<stop offset="0.111628" stop-color="#BD00FF"/>
<stop offset="0.851224" stop-color="#27CDF1" stop-opacity="0"/>
</linearGradient>
</defs>
</svg>
